# xmcd CD database file
#
# Track frame offsets:
#	150
#	2100
#	19724
#	31724
#	49874
#	64274
#	82841
#	93341
#	111941
#	124042
#	143842
#	156292
#	169042
#	179692
#	196830
#	211680
#	224992
#	243742
#	259492
#	279442
#	298492
#
# Disc length: 4226 seconds
#
# Revision: 0
# Processed by: cddbd v1.5.1PL0 Copyright (c) Steve Scherf et al.
# Submitted via: CDex 1.51
#
DISCID=3d108015
DTITLE=Kaffeehaus Blues Projekt - Blues zum Üben
DYEAR=2004
DGENRE=Blues
TTITLE0=Dampfende Socke
TTITLE1=Ich bin es wert
TTITLE2=Schlüssel zu meinem Herzen
TTITLE3=Halbe Welt Blues
TTITLE4=Der tierisch geile Blues
TTITLE5=Doppelkopf Blues
TTITLE6=Mädchen vom Kabarett
TTITLE7=Mackie Messer
TTITLE8=Fett, feist und schwabbelig
TTITLE9=Zipperlein blues
TTITLE10=Alter Teddybär Rag
TTITLE11=Land unserer Träume
TTITLE12=Die schöne Lehrerin
TTITLE13=Kabelanschluß Talking
TTITLE14=Liebe ist für'n Arsch
TTITLE15=Der Blues mit dem Blues
TTITLE16=Laß' mich in Deine Küche
TTITLE17=Lauf weg Blues
TTITLE18=B 214
TTITLE19=Wetterleuchten
TTITLE20=Guten Morgen, Blues
EXTD=YEAR: 2004
EXTT0=
EXTT1=
EXTT2=
EXTT3=
EXTT4=
EXTT5=
EXTT6=
EXTT7=
EXTT8=
EXTT9=
EXTT10=
EXTT11=
EXTT12=
EXTT13=
EXTT14=
EXTT15=
EXTT16=
EXTT17=
EXTT18=
EXTT19=
EXTT20=
PLAYORDER=
